<mxfile host="app.diagrams.net" modified="2020-08-07T10:02:48.009Z" agent="5.0 (Windows NT 10.0; Win64; x64) AppleWebKit/537.36 (KHTML, like Gecko) Chrome/86.0.4221.3 Safari/537.36" etag="p-fA8PvU2MAW4YpDtr0d" version="13.6.0" type="github">
  <diagram name="Page-1" id="e7e014a7-5840-1c2e-5031-d8a46d1fe8dd">
    <mxGraphModel dx="1422" dy="762" grid="1" gridSize="10" guides="1" tooltips="1" connect="1" arrows="1" fold="1" page="1" pageScale="1" pageWidth="1169" pageHeight="826" background="#ffffff" math="0" shadow="0">
      <root>
        <mxCell id="0" />
        <mxCell id="1" parent="0" />
        <mxCell id="2" value="devdrv_manager_init()" style="swimlane;whiteSpace=wrap" parent="1" vertex="1">
          <mxGeometry x="100" y="128" width="390" height="1102" as="geometry" />
        </mxCell>
        <mxCell id="5" value="" style="ellipse;shape=startState;fillColor=#000000;strokeColor=#ff0000;" parent="2" vertex="1">
          <mxGeometry x="148" y="40" width="30" height="30" as="geometry" />
        </mxCell>
        <mxCell id="6" value="" style="edgeStyle=elbowEdgeStyle;elbow=horizontal;verticalAlign=bottom;endArrow=open;endSize=8;strokeColor=#FF0000;endFill=1;rounded=0" parent="2" source="5" target="7" edge="1">
          <mxGeometry x="148" y="40" as="geometry">
            <mxPoint x="163" y="110" as="targetPoint" />
          </mxGeometry>
        </mxCell>
        <mxCell id="7" value="分配&#xa;dev_manager_info" style="" parent="2" vertex="1">
          <mxGeometry x="108" y="110" width="110" height="50" as="geometry" />
        </mxCell>
        <mxCell id="8" value="添加&quot;davinci_manager&quot;字符设备&#xa;class是“devdrv_manager”&#xa;操作符是devdrv_manager_file_operations&#xa;(dev_manager_info-&gt;dev，dev_manager_info-&gt;cdev)&#xa;" style="" parent="2" vertex="1">
          <mxGeometry x="16.5" y="170" width="293" height="80" as="geometry" />
        </mxCell>
        <mxCell id="9" value="" style="endArrow=open;strokeColor=#FF0000;endFill=1;rounded=0" parent="2" source="7" target="8" edge="1">
          <mxGeometry relative="1" as="geometry" />
        </mxCell>
        <mxCell id="10" value="创建设备检查workqueue&#xa;(dev_manager_info-&gt;dev_rdy_work)" style="" parent="2" vertex="1">
          <mxGeometry x="63" y="332" width="200" height="50" as="geometry" />
        </mxCell>
        <mxCell id="11" value="" style="endArrow=open;strokeColor=#FF0000;endFill=1;rounded=0;entryX=0.5;entryY=0;entryDx=0;entryDy=0;" parent="2" source="8" target="_3iI3aOARmOqrEQITrvo-47" edge="1">
          <mxGeometry relative="1" as="geometry">
            <mxPoint x="163" y="292" as="targetPoint" />
          </mxGeometry>
        </mxCell>
        <mxCell id="_3iI3aOARmOqrEQITrvo-41" value="" style="endArrow=open;strokeColor=#FF0000;endFill=1;rounded=0;exitX=1;exitY=0.5;exitDx=0;exitDy=0;entryX=1;entryY=0;entryDx=0;entryDy=0;" edge="1" parent="2" source="10" target="2">
          <mxGeometry relative="1" as="geometry">
            <mxPoint x="125" y="270" as="sourcePoint" />
            <mxPoint x="125" y="335" as="targetPoint" />
          </mxGeometry>
        </mxCell>
        <mxCell id="_3iI3aOARmOqrEQITrvo-44" value="创建ipc workqueue&lt;br&gt;（dev_manager_info-&amp;gt;ipc_event_recycle）" style="whiteSpace=wrap;html=1;" vertex="1" parent="2">
          <mxGeometry x="43" y="402" width="240" height="60" as="geometry" />
        </mxCell>
        <mxCell id="_3iI3aOARmOqrEQITrvo-45" value="" style="edgeStyle=orthogonalEdgeStyle;rounded=0;orthogonalLoop=1;jettySize=auto;html=1;" edge="1" parent="2" source="10" target="_3iI3aOARmOqrEQITrvo-44">
          <mxGeometry relative="1" as="geometry" />
        </mxCell>
        <mxCell id="_3iI3aOARmOqrEQITrvo-47" value="初始化dev_manager_info信息&#xa;（prob_num、host_type、drv_ops）" style="" vertex="1" parent="2">
          <mxGeometry x="63" y="272" width="200" height="50" as="geometry" />
        </mxCell>
        <mxCell id="_3iI3aOARmOqrEQITrvo-48" value="" style="endArrow=open;strokeColor=#FF0000;endFill=1;rounded=0;entryX=0.5;entryY=0;entryDx=0;entryDy=0;exitX=0.5;exitY=1;exitDx=0;exitDy=0;" edge="1" parent="2" source="_3iI3aOARmOqrEQITrvo-47" target="10">
          <mxGeometry relative="1" as="geometry">
            <mxPoint x="273" y="398" as="sourcePoint" />
            <mxPoint x="273" y="423" as="targetPoint" />
          </mxGeometry>
        </mxCell>
        <mxCell id="_3iI3aOARmOqrEQITrvo-49" value="devdrv_register_client()注册客户端devdrv_manager_host_instance，执行初始化" style="whiteSpace=wrap;html=1;" vertex="1" parent="2">
          <mxGeometry x="23" y="482" width="280" height="60" as="geometry" />
        </mxCell>
        <mxCell id="_3iI3aOARmOqrEQITrvo-50" value="" style="edgeStyle=orthogonalEdgeStyle;rounded=0;orthogonalLoop=1;jettySize=auto;html=1;" edge="1" parent="2" source="_3iI3aOARmOqrEQITrvo-44" target="_3iI3aOARmOqrEQITrvo-49">
          <mxGeometry relative="1" as="geometry" />
        </mxCell>
        <mxCell id="_3iI3aOARmOqrEQITrvo-51" value="分配一个struct devdrv_info&lt;br&gt;（dev_info）" style="whiteSpace=wrap;html=1;" vertex="1" parent="2">
          <mxGeometry x="103" y="562" width="120" height="60" as="geometry" />
        </mxCell>
        <mxCell id="_3iI3aOARmOqrEQITrvo-52" value="" style="edgeStyle=orthogonalEdgeStyle;rounded=0;orthogonalLoop=1;jettySize=auto;html=1;" edge="1" parent="2" source="_3iI3aOARmOqrEQITrvo-49" target="_3iI3aOARmOqrEQITrvo-51">
          <mxGeometry relative="1" as="geometry" />
        </mxCell>
        <mxCell id="_3iI3aOARmOqrEQITrvo-53" value="初始化dev_info" style="whiteSpace=wrap;html=1;" vertex="1" parent="2">
          <mxGeometry x="103" y="638" width="120" height="60" as="geometry" />
        </mxCell>
        <mxCell id="_3iI3aOARmOqrEQITrvo-54" value="" style="edgeStyle=orthogonalEdgeStyle;rounded=0;orthogonalLoop=1;jettySize=auto;html=1;" edge="1" parent="2" source="_3iI3aOARmOqrEQITrvo-51" target="_3iI3aOARmOqrEQITrvo-53">
          <mxGeometry relative="1" as="geometry" />
        </mxCell>
        <mxCell id="_3iI3aOARmOqrEQITrvo-55" value="调用devdrv_manager_create_one_device()&lt;br&gt;为dev_info创建字符设备&quot;davinci%d&quot;，class是“devdrv-class”&lt;br&gt;操作符是devdrv_fops_fake&lt;br&gt;（dev_info-&amp;gt;cce_ops.devdrv_cdev）" style="whiteSpace=wrap;html=1;" vertex="1" parent="2">
          <mxGeometry x="-16.25" y="722" width="358.5" height="60" as="geometry" />
        </mxCell>
        <mxCell id="_3iI3aOARmOqrEQITrvo-56" value="" style="edgeStyle=orthogonalEdgeStyle;rounded=0;orthogonalLoop=1;jettySize=auto;html=1;" edge="1" parent="2" source="_3iI3aOARmOqrEQITrvo-53" target="_3iI3aOARmOqrEQITrvo-55">
          <mxGeometry relative="1" as="geometry" />
        </mxCell>
        <mxCell id="_3iI3aOARmOqrEQITrvo-57" value="使用devdrv_manager_common_chan注册到common命令接收链中，接收消息类型为DEVDRV_COMMON_MSG_DEVDRV_MANAGER" style="whiteSpace=wrap;html=1;" vertex="1" parent="2">
          <mxGeometry x="-22" y="812" width="370" height="60" as="geometry" />
        </mxCell>
        <mxCell id="_3iI3aOARmOqrEQITrvo-58" value="" style="edgeStyle=orthogonalEdgeStyle;rounded=0;orthogonalLoop=1;jettySize=auto;html=1;" edge="1" parent="2" source="_3iI3aOARmOqrEQITrvo-55" target="_3iI3aOARmOqrEQITrvo-57">
          <mxGeometry relative="1" as="geometry" />
        </mxCell>
        <mxCell id="3" value="dev_manager_workqueue" style="swimlane;whiteSpace=wrap" parent="1" vertex="1">
          <mxGeometry x="444.5" y="128" width="280" height="570" as="geometry" />
        </mxCell>
        <mxCell id="13" value="" style="ellipse;shape=startState;fillColor=#000000;strokeColor=#ff0000;" parent="3" vertex="1">
          <mxGeometry x="60" y="40" width="30" height="30" as="geometry" />
        </mxCell>
        <mxCell id="14" value="" style="edgeStyle=elbowEdgeStyle;elbow=horizontal;verticalAlign=bottom;endArrow=open;endSize=8;strokeColor=#FF0000;endFill=1;rounded=0" parent="3" source="13" target="15" edge="1">
          <mxGeometry x="40" y="20" as="geometry">
            <mxPoint x="55" y="90" as="targetPoint" />
          </mxGeometry>
        </mxCell>
        <mxCell id="15" value="idle" style="" parent="3" vertex="1">
          <mxGeometry x="20" y="110" width="110" height="50" as="geometry" />
        </mxCell>
        <mxCell id="16" value="check for &#xa;new commands" style="" parent="3" vertex="1">
          <mxGeometry x="20" y="220" width="110" height="50" as="geometry" />
        </mxCell>
        <mxCell id="17" value="" style="endArrow=open;strokeColor=#FF0000;endFill=1;rounded=0" parent="3" source="15" target="16" edge="1">
          <mxGeometry relative="1" as="geometry" />
        </mxCell>
        <mxCell id="18" value="command queue" style="" parent="3" vertex="1">
          <mxGeometry x="20" y="325" width="110" height="50" as="geometry" />
        </mxCell>
        <mxCell id="19" value="" style="endArrow=open;strokeColor=#FF0000;endFill=1;rounded=0" parent="3" source="16" target="18" edge="1">
          <mxGeometry relative="1" as="geometry" />
        </mxCell>
        <mxCell id="21" value="queue empty" style="rhombus;fillColor=#ffffc0;strokeColor=#ff0000;" parent="3" vertex="1">
          <mxGeometry x="150" y="225" width="80" height="40" as="geometry" />
        </mxCell>
        <mxCell id="22" value="yes" style="edgeStyle=elbowEdgeStyle;elbow=horizontal;align=left;verticalAlign=bottom;endArrow=open;endSize=8;strokeColor=#FF0000;exitX=0.5;exitY=0;endFill=1;rounded=0;entryX=0.75;entryY=0.5;entryPerimeter=0" parent="3" source="21" target="25" edge="1">
          <mxGeometry x="-1" relative="1" as="geometry">
            <mxPoint x="160" y="150" as="targetPoint" />
            <Array as="points">
              <mxPoint x="190" y="180" />
            </Array>
          </mxGeometry>
        </mxCell>
        <mxCell id="23" value="no" style="edgeStyle=elbowEdgeStyle;elbow=horizontal;align=left;verticalAlign=top;endArrow=open;endSize=8;strokeColor=#FF0000;endFill=1;rounded=0" parent="3" source="21" target="30" edge="1">
          <mxGeometry x="-1" relative="1" as="geometry">
            <mxPoint x="190" y="305" as="targetPoint" />
          </mxGeometry>
        </mxCell>
        <mxCell id="24" value="" style="endArrow=open;strokeColor=#FF0000;endFill=1;rounded=0" parent="3" source="16" target="21" edge="1">
          <mxGeometry relative="1" as="geometry" />
        </mxCell>
        <mxCell id="25" value="" style="shape=line;strokeWidth=6;strokeColor=#ff0000;rotation=90" parent="3" vertex="1">
          <mxGeometry x="130" y="127.5" width="50" height="15" as="geometry" />
        </mxCell>
        <mxCell id="26" value="" style="edgeStyle=elbowEdgeStyle;elbow=horizontal;verticalAlign=bottom;endArrow=open;endSize=8;strokeColor=#FF0000;endFill=1;rounded=0" parent="3" source="25" target="15" edge="1">
          <mxGeometry x="130" y="90" as="geometry">
            <mxPoint x="230" y="140" as="targetPoint" />
          </mxGeometry>
        </mxCell>
        <mxCell id="30" value="dispatch&#xa;command&#xa;worker thread" style="" parent="3" vertex="1">
          <mxGeometry x="140" y="325" width="110" height="50" as="geometry" />
        </mxCell>
        <mxCell id="31" value="critical&#xa;section" style="shape=note;whiteSpace=wrap;size=17" parent="3" vertex="1">
          <mxGeometry x="105" y="490" width="100" height="50" as="geometry" />
        </mxCell>
        <mxCell id="32" value="" style="endArrow=none;strokeColor=#FF0000;endFill=0;rounded=0;dashed=1" parent="3" source="18" target="31" edge="1">
          <mxGeometry relative="1" as="geometry" />
        </mxCell>
        <mxCell id="34" value="" style="whiteSpace=wrap;strokeColor=#FF0000;fillColor=#FF0000" parent="3" vertex="1">
          <mxGeometry x="245" y="395" width="5" height="45" as="geometry" />
        </mxCell>
        <mxCell id="41" value="" style="edgeStyle=elbowEdgeStyle;elbow=horizontal;entryX=0;entryY=0.5;strokeColor=#FF0000;endArrow=open;endFill=1;rounded=0" parent="3" source="30" target="34" edge="1">
          <mxGeometry width="100" height="100" relative="1" as="geometry">
            <mxPoint x="60" y="480" as="sourcePoint" />
            <mxPoint x="160" y="380" as="targetPoint" />
            <Array as="points">
              <mxPoint x="195" y="400" />
            </Array>
          </mxGeometry>
        </mxCell>
        <mxCell id="4" value="dev_manager_ipc_event" style="swimlane;whiteSpace=wrap" parent="1" vertex="1">
          <mxGeometry x="724.5" y="128" width="280" height="570" as="geometry" />
        </mxCell>
        <mxCell id="33" value="process&#xa;command" style="" parent="4" vertex="1">
          <mxGeometry x="90" y="405" width="110" height="50" as="geometry" />
        </mxCell>
        <mxCell id="35" value="" style="edgeStyle=elbowEdgeStyle;elbow=horizontal;strokeColor=#FF0000;endArrow=open;endFill=1;rounded=0;entryX=0.25;entryY=0.5;entryPerimeter=0" parent="4" target="25" edge="1">
          <mxGeometry width="100" height="100" relative="1" as="geometry">
            <mxPoint x="-30" y="410" as="sourcePoint" />
            <mxPoint x="-120" y="120" as="targetPoint" />
            <Array as="points">
              <mxPoint x="-10" y="135" />
            </Array>
          </mxGeometry>
        </mxCell>
        <mxCell id="37" value="" style="edgeStyle=none;strokeColor=#FF0000;endArrow=open;endFill=1;rounded=0" parent="4" target="33" edge="1">
          <mxGeometry width="100" height="100" relative="1" as="geometry">
            <mxPoint x="-30" y="429.5" as="sourcePoint" />
            <mxPoint x="90" y="429.5" as="targetPoint" />
          </mxGeometry>
        </mxCell>
        <mxCell id="38" value="" style="ellipse;shape=endState;fillColor=#000000;strokeColor=#ff0000" parent="4" vertex="1">
          <mxGeometry x="130" y="500" width="30" height="30" as="geometry" />
        </mxCell>
        <mxCell id="39" value="" style="endArrow=open;strokeColor=#FF0000;endFill=1;rounded=0" parent="4" source="33" target="38" edge="1">
          <mxGeometry relative="1" as="geometry" />
        </mxCell>
        <mxCell id="_3iI3aOARmOqrEQITrvo-46" value="" style="endArrow=open;strokeColor=#FF0000;endFill=1;rounded=0;exitX=1;exitY=0.5;exitDx=0;exitDy=0;entryX=0;entryY=0;entryDx=0;entryDy=0;" edge="1" parent="1" source="_3iI3aOARmOqrEQITrvo-44" target="4">
          <mxGeometry relative="1" as="geometry">
            <mxPoint x="373" y="445" as="sourcePoint" />
            <mxPoint x="454.5" y="138" as="targetPoint" />
          </mxGeometry>
        </mxCell>
      </root>
    </mxGraphModel>
  </diagram>
</mxfile>
